<svg height="512" viewBox="0 0 64 64" width="512" xmlns="http://www.w3.org/2000/svg"><g id="Layer_4" data-name="Layer 4"><path d="m46 62 4-4v-50l-10-6h-16l-10 6v50l4 4z" fill="#6dc2f1"/><path d="m40 2h-16l-7 4.2v20.8a32 32 0 0 0 32 32l1-1v-50z" fill="#93d3f5"/><circle cx="32" cy="18" fill="#9d9e9d" r="5"/><path d="m46 43h-28v2h7v17h14v-17h7z" fill="#f2c14e"/><path d="m22.542 45h2.458v3.155a32.028 32.028 0 0 0 14 9.245v-12.4h7v-2h-24.708c.394.682.808 1.351 1.25 2z" fill="#f8d858"/><path d="m18 32h28v8h-28z" fill="#47a7ed"/><g fill="#e15240"><path d="m32 24a6 6 0 0 1 -3.6-10.8l1.2 1.6a4 4 0 1 0 4.8 0l1.2-1.6a6 6 0 0 1 -3.6 10.8z"/><path d="m31 10h2v6h-2z"/><path d="m37 35h2v2h-2z"/></g><path d="m41 35h2v2h-2z" fill="#508c45"/><circle cx="32" cy="52" fill="#606160" r="3"/><path d="m50 8v50l-4 4v-56.4z" fill="#47a7ed"/><path d="m14 8v50l4 4v-56.4z" fill="#47a7ed"/><path d="m46 5.6v53.255c.988.092 1.988.145 3 .145l1-1v-50z" fill="#55b4f1"/><path d="m18 5.6-1 .6v20.8a32.071 32.071 0 0 0 1 7.965z" fill="#55b4f1"/><path d="m18 34.965a31.709 31.709 0 0 0 1.761 5.035h26.239v-8h-28z" fill="#55b4f1"/><path d="m33.122 54.778a3 3 0 1 0 -4.122-2.804 31.95 31.95 0 0 0 4.122 2.804z" fill="#747574"/><path d="m17.293 62.707a1 1 0 0 0 .707.293h28a1 1 0 0 0 .707-.293l4-4a1 1 0 0 0 .293-.707v-50a1 1 0 0 0 -.485-.857l-10-6a1 1 0 0 0 -.515-.143h-16a1 1 0 0 0 -.515.143l-10 6a1 1 0 0 0 -.485.857v50a1 1 0 0 0 .293.707zm1.707-21.707h26v2h-26zm5 4v16h-5v-16zm2 0h12v16h-12zm14 0h5v16h-5zm5-6h-26v-6h26zm4 18.586-2 2v-52.22l2 1.2zm-24.723-54.586h15.446l5.277 3.166v24.834h-26v-24.834zm-9.277 5.566 2-1.2v52.22l-2-2z"/><path d="m32 24a6 6 0 0 0 3.6-10.8l-1.2 1.6a4 4 0 1 1 -4.8 0l-1.2-1.6a6 6 0 0 0 3.6 10.8z"/><path d="m31 10h2v6h-2z"/><path d="m37 35h2v2h-2z"/><path d="m41 35h2v2h-2z"/><path d="m32 48a4 4 0 1 0 4 4 4 4 0 0 0 -4-4zm0 6a2 2 0 1 1 2-2 2 2 0 0 1 -2 2z"/></g></svg>