<svg id="Capa_1" enable-background="new 0 0 512 512" height="512" viewBox="0 0 512 512" width="512" xmlns="http://www.w3.org/2000/svg"><g><g><path d="m28.715 369.138h351.537v72.732h-351.537z" fill="#3d4fc3"/></g><g><path d="m356.008 369.138h24.244v72.732h-24.244z" fill="#3342aa"/></g><g><path d="m132.762 370.148h32.325v111.118h-32.325z" fill="#f6e781" transform="matrix(0 1 -1 0 574.632 276.783)"/></g><g><path d="m28.715 7.5h351.537v361.638h-351.537z" fill="#78d0b1"/></g><g><path d="m356.008 7.5h24.244v361.638h-24.244z" fill="#66b49d"/></g><g><g><path d="m61.041 245.898v-115.158c0-11.158 9.045-20.203 20.203-20.203h246.48c11.158 0 20.203 9.045 20.203 20.203v115.159c0 11.158-9.045 20.203-20.203 20.203h-246.48c-11.158 0-20.203-9.046-20.203-20.204z" fill="#f6e781"/></g><g><path d="m327.724 110.537h-20.204c11.158 0 20.203 9.045 20.203 20.203v115.159c0 11.158-9.045 20.203-20.203 20.203h20.203c11.158 0 20.203-9.045 20.203-20.203v-115.159c.001-11.158-9.045-20.203-20.202-20.203z" fill="#f1cb86"/></g></g><g><circle cx="331.764" cy="55.988" fill="#3d4fc3" r="16.163"/></g><g><circle cx="77.203" cy="55.988" fill="#3d4fc3" r="16.163"/></g><g><circle cx="331.764" cy="320.65" fill="#3d4fc3" r="16.163"/></g><g><circle cx="77.203" cy="320.65" fill="#3d4fc3" r="16.163"/></g><g><path d="m289.842 412.07h60.61v55.559h-60.61z" fill="#e4f6ff" transform="matrix(0 1 -1 0 759.997 119.702)"/></g><g><path d="m422.679 112.557h60.61v60.61h-60.61z" fill="#e4f6ff" transform="matrix(0 1 -1 0 595.846 -310.122)"/></g><g><path d="m436.821 80.232h32.325v32.325h-32.325z" fill="#f6e781" transform="matrix(0 1 -1 0 549.378 -356.589)"/></g><g><path d="m28.712 46.34c4.143 0 7.5-3.357 7.5-7.5v-23.84h336.54v275.9c0 4.143 3.357 7.5 7.5 7.5s7.5-3.357 7.5-7.5v-283.4c0-4.143-3.357-7.5-7.5-7.5h-351.54c-4.143 0-7.5 3.357-7.5 7.5v31.34c0 4.142 3.357 7.5 7.5 7.5z"/><path d="m355.422 245.9v-115.16c0-15.273-12.426-27.7-27.7-27.7h-16.359c-4.143 0-7.5 3.357-7.5 7.5s3.357 7.5 7.5 7.5h16.359c7.003 0 12.7 5.697 12.7 12.7v115.16c0 7.002-5.697 12.699-12.7 12.699h-246.48c-7.003 0-12.7-5.697-12.7-12.699v-115.16c0-7.003 5.697-12.7 12.7-12.7h195.02c4.143 0 7.5-3.357 7.5-7.5s-3.357-7.5-7.5-7.5h-195.02c-15.274 0-27.7 12.427-27.7 27.7v115.16c0 15.273 12.426 27.699 27.7 27.699h246.479c15.275.001 27.701-12.425 27.701-27.699z"/><path d="m253.357 226.257c0 .548.062 1.081.174 1.595.081 1.882.859 3.669 2.2 5 1.405 1.396 3.305 2.178 5.284 2.178h.028c.67-.003 16.493-.063 22.805-.174 22.244-.389 38.389-19.96 38.389-46.537 0-27.939-15.741-46.712-39.169-46.712h-22.211c-1.991 0-3.901.792-5.309 2.202-1.406 1.409-2.195 3.32-2.191 5.312v.066.003zm29.711-69.65c17.819 0 24.169 16.382 24.169 31.712 0 14.991-7.401 31.256-23.651 31.539-3.437.061-9.943.106-15.096.136-.03-9.209-.103-53.838-.119-63.387z"/><path d="m171.02 226.257c0 .55.063 1.084.175 1.6.082 1.88.86 3.665 2.2 4.997 1.405 1.395 3.305 2.177 5.284 2.177h.028c.67-.003 16.492-.063 22.805-.174 22.244-.389 38.389-19.96 38.389-46.537 0-27.939-15.741-46.712-39.17-46.712h-22.211c-1.991 0-3.901.792-5.309 2.202-1.406 1.409-2.195 3.32-2.191 5.312v.066.003zm29.71-69.65c17.82 0 24.17 16.382 24.17 31.712 0 14.991-7.401 31.256-23.651 31.539-3.438.061-9.944.106-15.096.136-.03-9.209-.104-53.838-.12-63.387z"/><path d="m150.153 236.226c4.143 0 7.5-3.357 7.5-7.5v-80.812c0-4.143-3.357-7.5-7.5-7.5s-7.5 3.357-7.5 7.5v31.521h-40.923v-31.521c0-4.143-3.357-7.5-7.5-7.5s-7.5 3.357-7.5 7.5v80.812c0 4.143 3.357 7.5 7.5 7.5s7.5-3.357 7.5-7.5v-34.292h40.923v34.292c0 4.142 3.358 7.5 7.5 7.5z"/><path d="m331.764 32.325c-13.047 0-23.662 10.615-23.662 23.663 0 13.047 10.615 23.662 23.662 23.662 13.048 0 23.663-10.615 23.663-23.662 0-13.048-10.615-23.663-23.663-23.663zm0 32.325c-4.776 0-8.662-3.886-8.662-8.662s3.886-8.663 8.662-8.663 8.663 3.887 8.663 8.663-3.887 8.662-8.663 8.662z"/><path d="m77.203 79.65c13.048 0 23.663-10.615 23.663-23.662 0-13.048-10.615-23.663-23.663-23.663-13.047 0-23.662 10.615-23.662 23.663 0 13.047 10.615 23.662 23.662 23.662zm0-32.325c4.776 0 8.663 3.887 8.663 8.663s-3.887 8.662-8.663 8.662-8.662-3.886-8.662-8.662 3.886-8.663 8.662-8.663z"/><path d="m331.764 344.313c13.048 0 23.663-10.615 23.663-23.663 0-13.047-10.615-23.662-23.663-23.662-13.047 0-23.662 10.615-23.662 23.662 0 13.048 10.615 23.663 23.662 23.663zm0-32.325c4.776 0 8.663 3.886 8.663 8.662s-3.887 8.663-8.663 8.663-8.662-3.887-8.662-8.663 3.885-8.662 8.662-8.662z"/><path d="m53.541 320.65c0 13.048 10.615 23.663 23.662 23.663 13.048 0 23.663-10.615 23.663-23.663 0-13.047-10.615-23.662-23.663-23.662-13.047 0-23.662 10.616-23.662 23.662zm32.325 0c0 4.776-3.887 8.663-8.663 8.663s-8.662-3.887-8.662-8.663 3.886-8.662 8.662-8.662 8.663 3.886 8.663 8.662z"/><path d="m483.288 105.057h-6.642v-24.826c0-4.143-3.357-7.5-7.5-7.5h-32.325c-4.143 0-7.5 3.357-7.5 7.5v24.825h-6.643c-4.143 0-7.5 3.357-7.5 7.5v60.61c0 4.143 3.357 7.5 7.5 7.5h22.805v316.334h-117.836v-19.346h20.279c4.143 0 7.5-3.357 7.5-7.5v-20.784h24.825c4.143 0 7.5-3.357 7.5-7.5v-115.87c0-4.143-3.357-7.5-7.5-7.5s-7.5 3.357-7.5 7.5v35.639h-336.539v-287.699c0-4.143-3.357-7.5-7.5-7.5s-7.5 3.357-7.5 7.5v367.93c0 4.143 3.357 7.5 7.5 7.5h256.156v20.784c0 4.143 3.357 7.5 7.5 7.5h20.279v26.846c0 4.143 3.357 7.5 7.5 7.5h132.836c4.143 0 7.5-3.357 7.5-7.5v-323.833h22.805c4.143 0 7.5-3.357 7.5-7.5v-60.61c0-4.143-3.357-7.5-7.5-7.5zm-286.305 311.988v17.325h-40.559v-17.325zm-55.558 17.325h-40.559v-17.325h40.559zm70.558 0v-24.825c0-4.143-3.357-7.5-7.5-7.5h-111.117c-4.143 0-7.5 3.357-7.5 7.5v24.825h-49.654v-57.731h336.54v57.731h-17.325v-24.825c0-4.143-3.357-7.5-7.5-7.5h-55.559c-4.143 0-7.5 3.357-7.5 7.5v24.825zm87.885-17.325h40.559v45.609h-40.559zm144.453-329.314h17.325v17.325h-17.325zm31.467 77.936h-45.609v-45.61h45.609z"/></g></g></svg>