<svg id="Capa_1" enable-background="new 0 0 511.955 511.955" height="512" viewBox="0 0 511.955 511.955" width="512" xmlns="http://www.w3.org/2000/svg"><g><path d="m85.516 166.653v241.07h54.921c4.859 0 8.798-3.939 8.798-8.798v-19.713c0-4.859 3.939-8.798 8.798-8.798h35.652c4.859 0 8.798 3.939 8.798 8.798v19.713c0 4.859 3.939 8.798 8.798 8.798h60.218v31.877h139.462v-31.877h93.494v-241.07z" fill="#95d6a4"/><g><path d="m483.615 166.653h20.841v241.071h-20.841z" fill="#78c2a4"/></g><path d="m7.5 46.848v35.995h30.525c4.437 0 8.034 3.597 8.034 8.034v374.23h39.457v-410.225c0-4.437-3.597-8.034-8.034-8.034z" fill="#beb9dd"/><path d="m77.482 46.848h-19.5c4.437 0 8.034 3.597 8.034 8.034v410.225h19.5v-410.225c0-4.437-3.597-8.034-8.034-8.034z" fill="#a7a2d3"/><g><path d="m294.474 247.007h104.582v80.363h-104.582z" fill="#30579d"/><path d="m379.001 247.007h20.055v80.363h-20.055z" fill="#26457d"/></g><path d="m271.499 407.723h139.462v31.877h-139.462z" fill="#ffe07d"/><path d="m187.253 340.224-101.737 12.339v-130.75l101.737 12.339c9.797 1.188 17.165 9.504 17.165 19.373v67.326c0 9.869-7.368 18.185-17.165 19.373z" fill="#f9f6f9"/><path d="m187.253 234.152-10.715-1.299c2.756 3.991 4.408 9.065 4.408 14.561v79.549c0 5.496-1.651 10.57-4.408 14.561l10.715-1.3c9.797-1.188 17.165-9.504 17.165-19.373v-67.326c0-9.869-7.368-18.184-17.165-19.373z" fill="#dddaec"/><g fill="#ffe07d"><path d="m464.467 228.488h-32.154c-3.397 0-6.151-2.754-6.151-6.151v-26.468c0-3.397 2.754-6.151 6.151-6.151h32.154c3.397 0 6.151 2.754 6.151 6.151v26.468c0 3.397-2.753 6.151-6.151 6.151z"/><path d="m464.467 384.658h-32.154c-3.397 0-6.151-2.754-6.151-6.151v-26.468c0-3.397 2.754-6.151 6.151-6.151h32.154c3.397 0 6.151 2.754 6.151 6.151v26.468c0 3.397-2.753 6.151-6.151 6.151z"/></g><path d="m46.059 325.393h-23.844c-4.101 0-7.426-3.325-7.426-7.426v-61.558c0-4.101 3.325-7.426 7.426-7.426h23.843v76.41z" fill="#ffe07d"/><g><path d="m504.455 259.031c4.143 0 7.5-3.357 7.5-7.5v-84.878c0-4.143-3.357-7.5-7.5-7.5h-411.439v-104.271c0-8.565-6.968-15.534-15.534-15.534h-16.961c-4.142 0-7.5 3.357-7.5 7.5s3.358 7.5 7.5 7.5h16.961c.294 0 .534.239.534.534v402.725h-24.457v-366.73c0-8.565-6.968-15.534-15.534-15.534h-23.025v-20.995h15.533c4.142 0 7.5-3.357 7.5-7.5s-3.358-7.5-7.5-7.5h-23.033c-4.142 0-7.5 3.357-7.5 7.5v35.995c0 4.143 3.358 7.5 7.5 7.5h30.525c.294 0 .534.239.534.534v150.606h-16.344c-8.23 0-14.926 6.695-14.926 14.926v61.558c0 8.23 6.696 14.926 14.926 14.926h16.344v132.214c0 4.143 3.358 7.5 7.5 7.5h39.457c4.142 0 7.5-3.357 7.5-7.5v-49.884h47.421c8.987 0 16.298-7.312 16.298-16.298v-19.714c0-.716.583-1.298 1.298-1.298h35.652c.716 0 1.298.582 1.298 1.298v19.714c0 8.986 7.311 16.298 16.298 16.298h52.718v24.377c0 4.143 3.357 7.5 7.5 7.5h139.462c4.143 0 7.5-3.357 7.5-7.5v-24.377h85.994c4.143 0 7.5-3.357 7.5-7.5v-126.205c0-4.143-3.357-7.5-7.5-7.5s-7.5 3.357-7.5 7.5v118.705h-250.3v-10.449l17.17-22.169c2.536-3.275 1.938-7.986-1.337-10.522-3.276-2.536-7.985-1.938-10.522 1.337l-18.741 24.197c-1.018 1.314-1.57 2.931-1.57 4.593v13.014h-20.374c-.716 0-1.298-.582-1.298-1.298v-19.714c0-8.986-7.312-16.298-16.298-16.298h-35.652c-8.987 0-16.298 7.312-16.298 16.298v19.714c0 .716-.582 1.298-1.298 1.298h-47.421v-41.015l21.752-2.638c4.112-.499 7.042-4.236 6.542-8.349-.499-4.111-4.234-7.046-8.348-6.542l-19.947 2.419v-113.82l93.334 11.319c6.025.731 10.568 5.858 10.568 11.928v67.326c0 6.069-4.543 11.196-10.568 11.927l-43.401 5.265c-4.112.499-7.041 4.236-6.542 8.349.499 4.111 4.229 7.035 8.349 6.542l43.4-5.265c13.547-1.642 23.763-13.171 23.763-26.817v-67.326c0-13.646-10.215-25.175-23.762-26.818l-95.14-11.539v-41.015h138.639v11.594c0 1.662.552 3.278 1.57 4.593l18.741 24.197c1.478 1.908 3.694 2.907 5.935 2.907 1.604 0 3.221-.512 4.588-1.57 3.274-2.536 3.873-7.247 1.337-10.522l-17.17-22.169v-9.029h250.3v77.378c-.001 4.139 3.356 7.497 7.499 7.497zm-482.165 58.862v-61.409h16.27v61.409zm256.709 97.33h12.531v16.877h-12.531zm68.798 16.877h-13.134v-16.877h13.134zm15-16.877h13.134v16.877h-13.134zm-43.134 16.877h-13.133v-16.877h13.133zm83.798 0h-12.53v-16.877h12.53z"/><path d="m374.898 349.083c4.143 0 7.5-3.357 7.5-7.5v-6.713h16.657c4.143 0 7.5-3.357 7.5-7.5v-9.63h6.713c4.143 0 7.5-3.357 7.5-7.5s-3.357-7.5-7.5-7.5h-6.713v-8.052h6.713c4.143 0 7.5-3.357 7.5-7.5s-3.357-7.5-7.5-7.5h-6.713v-8.051h6.713c4.143 0 7.5-3.357 7.5-7.5s-3.357-7.5-7.5-7.5h-6.713v-9.631c0-4.143-3.357-7.5-7.5-7.5h-16.657v-6.713c0-4.143-3.357-7.5-7.5-7.5s-7.5 3.357-7.5 7.5v6.713h-13.134v-6.713c0-4.143-3.357-7.5-7.5-7.5s-7.5 3.357-7.5 7.5v6.713h-13.134v-6.713c0-4.143-3.357-7.5-7.5-7.5s-7.5 3.357-7.5 7.5v6.713h-16.657c-4.143 0-7.5 3.357-7.5 7.5v9.631h-6.713c-4.143 0-7.5 3.357-7.5 7.5s3.357 7.5 7.5 7.5h6.713v8.051h-6.713c-4.143 0-7.5 3.357-7.5 7.5s3.357 7.5 7.5 7.5h6.713v8.052h-6.713c-4.143 0-7.5 3.357-7.5 7.5s3.357 7.5 7.5 7.5h6.713v9.63c0 4.143 3.357 7.5 7.5 7.5h16.657v6.713c0 4.143 3.357 7.5 7.5 7.5s7.5-3.357 7.5-7.5v-6.713h13.134v6.713c0 4.143 3.357 7.5 7.5 7.5s7.5-3.357 7.5-7.5v-6.713h13.134v6.713c0 4.142 3.358 7.5 7.5 7.5zm-72.924-94.577h89.582v65.363h-89.582z"/><path d="m139.364 318.183c-2.89 2.968-2.826 7.716.141 10.605 2.968 2.89 7.716 2.827 10.606-.141 10.877-11.17 16.867-25.899 16.867-41.475 0-15.558-5.979-30.275-16.834-41.441-2.887-2.969-7.636-3.036-10.605-.148-2.97 2.887-3.037 7.635-.149 10.605 8.118 8.35 12.589 19.354 12.589 30.984-.001 11.645-4.481 22.658-12.615 31.011z"/><path d="m134.219 315.267c7.394-7.555 11.466-17.532 11.466-28.094 0-10.542-4.06-20.507-11.431-28.058-2.894-2.964-7.643-3.021-10.606-.128-2.964 2.894-3.021 7.643-.127 10.606 4.62 4.732 7.164 10.976 7.164 17.579 0 6.616-2.552 12.867-7.186 17.602-2.897 2.961-2.846 7.709.114 10.606 2.961 2.899 7.71 2.847 10.606-.113z"/><path d="m109.168 303.37c2.932 2.913 7.68 2.913 10.606-.032 4.3-4.327 6.668-10.067 6.668-16.164 0-6.073-2.354-11.798-6.627-16.12-2.911-2.944-7.66-2.973-10.606-.06-2.945 2.912-2.972 7.661-.06 10.606 1.479 1.495 2.293 3.475 2.293 5.573 0 2.107-.819 4.093-2.307 5.59-2.919 2.939-2.905 7.687.033 10.607z"/><path d="m241.976 225.346h-9.84c-4.142 0-7.5 3.357-7.5 7.5s3.358 7.5 7.5 7.5h9.84c4.142 0 7.5-3.357 7.5-7.5s-3.358-7.5-7.5-7.5z"/><path d="m241.976 261.575h-9.84c-4.142 0-7.5 3.357-7.5 7.5s3.358 7.5 7.5 7.5h9.84c4.142 0 7.5-3.357 7.5-7.5s-3.358-7.5-7.5-7.5z"/><path d="m241.976 297.802h-9.84c-4.142 0-7.5 3.357-7.5 7.5s3.358 7.5 7.5 7.5h9.84c4.142 0 7.5-3.357 7.5-7.5s-3.358-7.5-7.5-7.5z"/><path d="m241.976 334.03h-9.84c-4.142 0-7.5 3.357-7.5 7.5s3.358 7.5 7.5 7.5h9.84c4.142 0 7.5-3.357 7.5-7.5s-3.358-7.5-7.5-7.5z"/><path d="m478.118 195.87c0-7.527-6.124-13.651-13.65-13.651h-32.154c-7.527 0-13.651 6.124-13.651 13.651v26.468c0 7.527 6.124 13.651 13.651 13.651h32.154c7.526 0 13.65-6.124 13.65-13.651zm-15 25.119h-29.456v-23.771h29.456z"/><path d="m432.313 392.158h32.154c7.526 0 13.65-6.124 13.65-13.651v-26.467c0-7.527-6.124-13.651-13.65-13.651h-32.154c-7.527 0-13.651 6.124-13.651 13.651v26.467c0 7.527 6.124 13.651 13.651 13.651zm1.349-38.77h29.456v23.77h-29.456z"/></g></g></svg>