<svg height="512" viewBox="0 0 512 512" width="512" xmlns="http://www.w3.org/2000/svg"><g id="filled_outline" data-name="filled outline"><path d="m488 152-31.61 32.39014-264.78 271.21972-31.61 32.39014-50.34-50.34009 5.65-5.65991a11.31371 11.31371 0 0 0 -16-16l-5.65 5.65991-20-20 6.34-6.34985a11.31371 11.31371 0 0 0 -16-16l-6.34 6.34985-33.66-33.65991 336-328 32 32-4.68994 4.68994a11.31371 11.31371 0 1 0 16 16l4.68994-4.68994 16 16-4.68994 4.68994a11.31371 11.31371 0 0 0 16 16l4.68994-4.68994z" fill="#02c26a"/><path d="m264 288-34.34 34.34-11.32 11.32-28.68 28.68-11.32 11.32-34.34 34.34-64-64 34.34-34.34 11.32-11.32 28.68-28.68 11.32-11.32 34.34-34.34z" fill="#718799"/><path d="m456.39 184.39-18.12 18.56-11.18 11.46-12.54 12.83-11.17 11.45-12.53 12.84-11.19 11.45-12.53 12.84-11.17 11.45-12.54 12.83-11.18 11.46-12.53 12.84-11.18 11.44-12.53 12.84-11.18 11.45-12.54 12.84-11.17 11.45-12.53 12.84-11.19 11.45-12.53 12.84-11.17 11.45-22.08 22.61-23.61-23.61 22.01-22.68 11.14-11.48 12.5-12.87 11.15-11.49 12.5-12.87 11.14-11.48 12.49-12.88 11.15-11.49 12.49-12.87 11.15-11.48 12.5-12.88 11.14-11.48 12.5-12.88 11.14-11.48 12.5-12.88 11.15-11.48 12.5-12.87 11.14-11.48 12.49-12.88 11.15-11.49 18.07-18.61z" fill="#ffc431"/><path d="m408 144-34.34 34.34-11.32 11.32-28.68 28.68-11.32 11.32-34.34 34.34-64-64 34.34-34.34 11.32-11.32 28.68-28.68 11.32-11.32 34.34-34.34z" fill="#718799"/><path d="m52.00354 391.31738a8.00036 8.00036 0 0 0 5.65674 2.34278h.00293a8.00183 8.00183 0 0 0 5.6582-2.34766l6.3291-6.33887a3.31391 3.31391 0 1 1 4.68849 4.68457l-6.33984 6.34961a8.00018 8.00018 0 0 0 .00439 11.30957l20 20a7.99951 7.99951 0 0 0 5.65674 2.34278h.00342a7.99979 7.99979 0 0 0 5.65869-2.34864l5.64453-5.65429a3.30237 3.30237 0 0 1 2.34717-.97168h.00146a3.28694 3.28694 0 0 1 2.33789.97168 3.3225 3.3225 0 0 1 -.00537 4.6914l-5.6499 5.66016a7.99988 7.99988 0 0 0 .00537 11.30859l50.33984 50.33985a8.00178 8.00178 0 0 0 5.65624 2.34277h.04883a7.99937 7.99937 0 0 0 5.67627-2.41211l328-336a7.99994 7.99994 0 0 0 -.06787-11.24512l-48-48a8.00269 8.00269 0 0 0 -11.31348 0l-4.68994 4.68946a3.31006 3.31006 0 0 1 -5.65332-2.34278 3.25156 3.25156 0 0 1 .9668-2.34277l4.68994-4.68945a8.00063 8.00063 0 0 0 0-11.31446l-16-16a8.00357 8.00357 0 0 0 -11.31348 0l-4.68994 4.68946a3.31006 3.31006 0 0 1 -5.65332-2.34278 3.25156 3.25156 0 0 1 .9668-2.34277l4.68994-4.68945a8.00063 8.00063 0 0 0 0-11.31446l-32-32a8.00128 8.00128 0 0 0 -11.24512-.06738l-336 328a8.00009 8.00009 0 0 0 -.06836 11.38184zm356.43946-195.56054 12.9856 12.98559-12.5332 12.83887-12.949-12.949zm11.14514-11.48291 12.497-12.87549 13.05445 13.05468-12.53339 12.83888zm-34.78686 35.8413 12.9165 12.91651-12.53308 12.83887-12.88012-12.88013zm-23.64172 24.35816 12.84744 12.84741-12.53321 12.83887-12.81091-12.811zm-23.64186 24.35815 12.77856 12.77857-12.5332 12.83889-12.74194-12.742zm-23.6417 24.3584 12.70935 12.70923-12.53323 12.83883-12.67285-12.67285zm-23.64175 24.35816 12.64038 12.64038-12.5332 12.83886-12.604-12.604zm-23.64184 24.35815 12.57129 12.57129-12.53308 12.83887-12.53492-12.53467zm-23.64179 24.35815 12.50238 12.50245-12.5332 12.83886-12.4658-12.46582zm-23.64178 24.35816 12.43335 12.43359-12.53319 12.83885-12.39679-12.397zm-23.64179 24.35844 12.36432 12.36425-16.485 16.88721-12.31627-12.31646zm164.2652-379.73491 20.7876 20.78711a19.31444 19.31444 0 0 0 27.24609 27.2461l4.75391 4.7539a19.31444 19.31444 0 0 0 27.24609 27.2461l36.78806 36.78808-20.437 20.93555-18.66016-18.66016a7.99882 7.99882 0 0 0 -5.65672-2.34277h-.05957a8.00348 8.00348 0 0 0 -5.68115 2.42773l-264 272a8.00089 8.00089 0 0 0 .084 11.2295l18.02539 18.02539-20.437 20.93554-38.96289-38.96289a19.31469 19.31469 0 0 0 -13.64453-32.96972h-.01074a19.19072 19.19072 0 0 0 -13.6582 5.65625l-8.68555-8.68555.68848-.69043a19.31355 19.31355 0 1 0 -27.31936-27.30762l-.68311.6836-22.27344-22.27344z"/><path d="m138.34338 413.65723a8.00063 8.00063 0 0 0 11.31348 0l120-120a8.00034 8.00034 0 0 0 0-11.31446l-64-64a8.00182 8.00182 0 0 0 -11.31348 0l-120 120a8.00034 8.00034 0 0 0 0 11.31446zm61.65674-178.34375 52.68604 52.68652-28.68579 28.68628-52.68628-52.68628zm-40.00024 40.00024 52.68628 52.68628-28.68579 28.68628-52.68628-52.68628zm-40 40 52.68628 52.68628-28.686 28.68652-52.68607-52.68652z"/><path d="m282.34338 269.65723a8.00063 8.00063 0 0 0 11.31348 0l120-120a8.00034 8.00034 0 0 0 0-11.31446l-64-64a8.00182 8.00182 0 0 0 -11.31348 0l-120 120a8.00034 8.00034 0 0 0 0 11.31446zm61.65674-178.34375 52.68604 52.68652-28.68579 28.68628-52.68628-52.68628zm-40.00024 40.00024 52.68628 52.68628-28.68579 28.68628-52.68628-52.68628zm-40 40 52.68628 52.68628-28.686 28.68652-52.68607-52.68652z"/></g></svg>